<svg xmlns="http://www.w3.org/2000/svg" viewBox="0 0 260 72" width="260" height="72">
  <g transform="translate(4,4)">
    <line x1="8"  y1="62" x2="20" y2="8"  stroke="#7C3AED" stroke-width="2"   opacity="0.6" stroke-linecap="round"/>
    <line x1="20" y1="8"  x2="32" y2="38" stroke="#7C3AED" stroke-width="2"   opacity="0.6" stroke-linecap="round"/>
    <line x1="32" y1="38" x2="44" y2="8"  stroke="#7C3AED" stroke-width="2"   opacity="0.6" stroke-linecap="round"/>
    <line x1="44" y1="8"  x2="56" y2="62" stroke="#7C3AED" stroke-width="2"   opacity="0.6" stroke-linecap="round"/>
    <line x1="8"  y1="62" x2="56" y2="62" stroke="#7C3AED" stroke-width="1.5" opacity="0.15" stroke-linecap="round"/>
    <line x1="8"  y1="62" x2="44" y2="8"  stroke="#7C3AED" stroke-width="1"   opacity="0.08" stroke-linecap="round"/>
    <line x1="56" y1="62" x2="20" y2="8"  stroke="#7C3AED" stroke-width="1"   opacity="0.08" stroke-linecap="round"/>
    <circle cx="8"  cy="62" r="6.5" fill="#7C3AED"/><circle cx="8"  cy="62" r="3"   fill="white"/>
    <circle cx="20" cy="8"  r="6.5" fill="#7C3AED"/><circle cx="20" cy="8"  r="3"   fill="white"/>
    <circle cx="32" cy="38" r="5.5" fill="#7C3AED"/>
    <circle cx="44" cy="8"  r="6.5" fill="#7C3AED"/><circle cx="44" cy="8"  r="3"   fill="white"/>
    <circle cx="56" cy="62" r="6.5" fill="#7C3AED"/><circle cx="56" cy="62" r="3"   fill="white"/>
  </g>
  <text x="82" y="29" font-family="'Montserrat','Arial Black',sans-serif" font-weight="800" font-size="26" fill="#1C1C2E" letter-spacing="-0.5">MESHARK<tspan fill="#7C3AED">TECH</tspan></text>
  <text x="83" y="50" font-family="'Montserrat','Arial',sans-serif" font-weight="500" font-size="9.5" fill="#9CA3AF" letter-spacing="4">SECURE · BUILD · ARCHITECT</text>
</svg>
